# xmcd CD database file
# Copyright (C) 1993-1998 Ti Kan
#
# Track frame offsets:
#	150
#	18632
#	30515
#	45317
#	61052
#	83900
#	95325
#	109177
#	130882
#	146640
#	165820
#
# Disc length: 2459 seconds
#
# Revision: 1
# Processed by: cddbd v1.4b41PL1 Copyright (c) Steve Scherf et al.
# Submitted via: CDValet v3.31 - Copyright (c) 1997 Greg Leichner
#
DISCID=8009990b
DTITLE=Michel Provencher - Dreamland Guitar
DYEAR=1900
DGENRE=
TTITLE0=Land Of Dreams
TTITLE1=White Nights
TTITLE2=Painted Skies
TTITLE3=Tales Of Paradise
TTITLE4=Pyramid'sPyramid's Treasure
TTITLE5=Rainbow Under The Sea
TTITLE6=The Color Of Spring
TTITLE7=Morning On Emerald Lake
TTITLE8=Flowers In Bloom
TTITLE9=Seeds Of Happiness
TTITLE10=Blue Reverie
EXTD=
EXTT0=
EXTT1=
EXTT2=
EXTT3=
EXTT4=
EXTT5=
EXTT6=
EXTT7=
EXTT8=
EXTT9=
EXTT10=
PLAYORDER=
